# xmcd
#
# Track frame offsets: 
#        150
#        27689
#        62600
#        83482
#        105900
#        120739
#        148584
#        175563
#        189482
#        215073
#        238619
#
# Disc length: 3724 seconds
#
# Revision: 0
# Processed by: cddbd v1.5.2PL0 Copyright (c) Steve Scherf et al.
# Submitted via: ExactAudioCopyFreeDBPlugin 1.0
#
DISCID=900e8a0b
DTITLE=Casey Hensley - Live  feat. Laura Chavez
DYEAR=2017
DGENRE=Blues
TTITLE0=Big Mama's Coming Home
TTITLE1=Put Your Lovin' Where It Belongs
TTITLE2=You Can Have My Husband
TTITLE3=Spell on You
TTITLE4=Hard Headed Woman
TTITLE5=Don't Want It to Stop
TTITLE6=I Just Want to Make Love to You
TTITLE7=Hot! Hot! Hot!
TTITLE8=Voodoo Woman
TTITLE9=Too Tired
TTITLE10=Ball and Chain
EXTD=
EXTT0=
EXTT1=
EXTT2=
EXTT3=
EXTT4=
EXTT5=
EXTT6=
EXTT7=
EXTT8=
EXTT9=
EXTT10=
PLAYORDER=
